<svg width="355" height="120" viewBox="0 0 355 120" fill="none" xmlns="http://www.w3.org/2000/svg">
<g clip-path="url(#clip0_2016_6088)">
<path d="M244.312 47H111.688C111.344 47 111 46.8125 111 46.5C111 46.25 111.258 46 111.688 46H244.312C244.656 46 245 46.1875 245 46.5C245 46.75 244.656 47 244.312 47Z" fill="#2F2E2B"/>
<path d="M333.563 120H21.4372C21.0942 120 20.7512 119.758 20.7512 119.354C20.7512 113.214 15.4348 108.205 8.91787 108.205C8.66063 108.205 8.40338 108.044 8.31763 107.801L0 83.2424C0 83.1616 0 83 0 82.8384L8.31763 58.2795C8.40338 58.0371 8.66063 57.8755 8.91787 57.8755C15.4348 57.8755 20.7512 52.8668 20.7512 46.7271C20.7512 46.4039 21.0085 46.0808 21.4372 46.0808H70.1425C70.4855 46.0808 70.8285 46.3231 70.8285 46.7271C70.8285 47.0502 70.5713 47.3734 70.2283 47.3734H22.0374C21.6944 53.7555 16.2065 58.9258 9.34662 59.1681L1.20048 83.1616L9.34662 107.155C16.1208 107.397 21.6944 112.487 22.0374 118.95H332.877C333.22 112.568 338.708 107.397 345.568 107.155L353.714 83.1616L345.568 59.0873C338.793 58.845 333.22 53.7555 332.877 47.2926H284.772C284.429 47.2926 284.086 47.0502 284.086 46.6463C284.086 46.3231 284.343 46 284.686 46H333.563C333.906 46 334.249 46.2424 334.249 46.6463C334.249 52.786 339.565 57.7948 346.082 57.7948C346.339 57.7948 346.597 57.9563 346.682 58.1987L355 82.7576C355 82.8384 355 83 355 83.1616L346.682 107.721C346.597 107.963 346.339 108.124 346.082 108.124C339.565 108.124 334.249 113.133 334.249 119.273C334.249 119.758 333.906 120 333.563 120Z" fill="#2F2E2B"/>
<path d="M257.686 53C257.511 53 257.423 52.9208 257.247 52.8416C256.983 52.6041 256.896 52.2874 257.159 51.9707C257.335 51.8123 260.322 48.3284 264.891 46.0321C260.41 43.7359 257.335 40.252 257.247 40.0144C256.983 39.7769 257.071 39.381 257.335 39.1434C257.598 38.9059 258.038 38.9851 258.301 39.2226C258.301 39.3018 261.816 43.2608 266.649 45.3987C266.912 45.4779 267 45.7154 267 45.9529C267 46.1905 266.824 46.3488 266.649 46.5072C261.816 48.6451 258.301 52.6041 258.301 52.6833C258.038 52.9208 257.862 53 257.686 53Z" fill="#2F2E2B"/>
<path d="M262.006 59C261.752 59 261.582 58.9175 261.497 58.7525C261.412 58.67 253.521 47.2838 243.679 47.2838C243.339 47.2838 243 47.0363 243 46.6238C243 46.2112 243.255 45.9637 243.679 45.9637C253.521 45.9637 261.412 34.4125 261.497 34.2475C261.582 34.0825 261.752 34 262.006 34C262.176 34 262.43 34.0825 262.515 34.2475C272.867 45.7987 284.321 45.9637 284.406 45.9637C284.745 45.9637 285 46.2112 285 46.6238C285 46.9538 284.745 47.2013 284.321 47.2013C284.152 47.2013 272.697 47.2838 262.43 58.7525C262.345 58.9175 262.176 59 262.006 59ZM247.836 46.6238C255.048 48.6865 260.394 55.2871 262.006 57.4323C268.624 50.2541 275.582 47.6139 279.909 46.6238C275.582 45.5512 268.624 42.8284 262.006 35.6502C260.479 37.7954 255.048 44.5611 247.836 46.6238Z" fill="#2F2E2B"/>
<path d="M232.48 60C232.03 60 231.581 59.9187 231.132 59.8375C229.066 59.2687 227.629 57.3185 228.078 55.4496C228.347 54.312 229.156 53.4181 230.234 53.1744C230.863 53.0118 231.671 53.1744 232.21 53.4994C232.749 53.8244 233.108 54.312 233.108 54.8808C233.108 55.2058 232.929 55.5308 232.48 55.5308C232.12 55.5308 231.761 55.3683 231.761 54.962C231.761 54.7183 231.491 54.5557 231.402 54.4745C231.132 54.312 230.773 54.2307 230.503 54.312C229.964 54.4745 229.425 54.962 229.336 55.6933C229.066 56.9122 230.054 58.2936 231.491 58.6999C232.839 59.1062 234.546 58.5374 235.534 57.481C237.33 55.4496 236.791 52.1993 235.085 50.4116C233.468 48.7052 230.773 47.6488 227.808 47.6488C227.719 47.6488 227.719 47.6488 227.629 47.6488C227.269 47.6488 227 47.4051 227 46.9988C227 46.5925 227.269 46.43 227.629 46.3487C227.719 46.3487 227.719 46.3487 227.808 46.3487C230.773 46.3487 233.468 45.2924 235.085 43.586C236.701 41.7983 237.33 38.548 235.534 36.5165C234.546 35.3789 232.929 34.8914 231.491 35.2977C230.054 35.704 229.066 37.0853 229.336 38.3042C229.425 38.9543 229.964 39.5231 230.503 39.6856C230.773 39.7668 231.132 39.6856 231.402 39.5231C231.491 39.4418 231.761 39.2793 231.761 39.0355C231.761 38.7105 232.12 38.4667 232.48 38.4667C232.839 38.4667 233.108 38.7918 233.108 39.1168C233.018 39.6856 232.749 40.0919 232.21 40.4982C231.581 40.8232 230.863 40.9857 230.234 40.8232C229.156 40.5794 228.258 39.6856 228.078 38.548C227.719 36.6791 229.066 34.7289 231.132 34.1601C233.018 33.6725 235.264 34.3226 236.612 35.7852C238.857 38.3042 238.139 42.2858 236.162 44.3985C235.085 45.5361 233.557 46.43 231.851 46.9988C233.557 47.5676 235.085 48.4614 236.162 49.599C238.139 51.7117 238.767 55.6933 236.612 58.2123C235.534 59.2687 234.007 60 232.48 60Z" fill="#2F2E2B"/>
<path d="M97.2258 53C97.0501 53 96.8743 52.9204 96.6986 52.7611C96.6986 52.7611 93.184 48.6999 88.3515 46.5499C88.0879 46.4703 88 46.2314 88 45.9925C88 45.7536 88.1757 45.5943 88.3515 45.4351C93.184 43.285 96.6107 39.2239 96.6986 39.2239C96.9622 38.985 97.3137 38.9054 97.6651 39.1442C97.9287 39.3831 98.0166 39.7017 97.753 40.0202C97.5773 40.1794 94.5898 43.6832 90.1088 46.0721C94.5898 48.3814 97.6651 51.8852 97.8408 52.0444C98.1044 52.2833 98.0166 52.6815 97.753 52.9204C97.4894 53 97.3137 53 97.2258 53Z" fill="#2F2E2B"/>
<path d="M92.0788 59C91.9091 59 91.7394 58.9175 91.5697 58.7525C81.303 47.2838 69.8485 47.2013 69.6788 47.2013C69.3394 47.2013 69.0848 46.9538 69 46.6238C69 46.2937 69.2545 45.9637 69.5939 45.9637C69.7636 45.9637 81.2182 45.7162 91.4848 34.2475C91.6545 34.0825 91.8242 34 91.9939 34C92.1636 34 92.3333 34.0825 92.503 34.2475C92.5879 34.33 100.479 45.9637 110.321 45.9637C110.661 45.9637 111 46.2112 111 46.6238C111 46.9538 110.745 47.2838 110.321 47.2838C100.394 47.2838 92.503 58.67 92.503 58.7525C92.503 58.9175 92.3333 59 92.0788 59ZM74.0909 46.6238C78.4182 47.6139 85.3758 50.2541 91.9939 57.4323C93.6061 55.2871 99.0364 48.6865 106.164 46.6238C98.9515 44.5611 93.6061 37.7954 91.9939 35.6502C85.3758 42.8284 78.4182 45.5512 74.0909 46.6238Z" fill="#2F2E2B"/>
<path d="M123.52 60C121.993 60 120.376 59.3508 119.388 58.2146C117.143 55.6988 117.861 51.7222 119.838 49.6122C120.915 48.476 122.443 47.5833 124.149 47.0153C122.443 46.4472 120.915 45.5545 119.838 44.4183C117.861 42.3083 117.233 38.3317 119.388 35.8159C120.736 34.3551 122.982 33.6247 124.868 34.1928C126.934 34.7609 128.371 36.7086 127.922 38.5752C127.653 39.7113 126.844 40.604 125.766 40.8475C125.137 41.0098 124.329 40.8475 123.79 40.5229C123.251 40.1983 122.892 39.7113 122.892 39.1433C122.892 38.8186 123.071 38.494 123.52 38.494C123.88 38.494 124.239 38.6563 124.239 39.0621C124.239 39.3056 124.509 39.4679 124.598 39.549C124.868 39.7113 125.227 39.7925 125.497 39.7113C126.036 39.549 126.575 39.0621 126.664 38.3317C126.934 37.1144 125.946 35.7348 124.509 35.329C123.161 34.9232 121.454 35.4913 120.466 36.5463C118.67 38.5752 119.209 41.8214 120.915 43.6068C122.532 45.311 125.227 46.366 128.192 46.366C128.281 46.366 128.281 46.366 128.371 46.366C128.731 46.366 129 46.6095 129 47.0153C129 47.3399 128.731 47.5833 128.371 47.6645C128.281 47.6645 128.281 47.6645 128.192 47.6645C125.227 47.6645 122.532 48.7195 120.915 50.4237C119.299 52.2092 118.67 55.4553 120.466 57.4842C121.454 58.6204 123.071 59.1073 124.509 58.7015C125.946 58.2958 126.934 56.9161 126.664 55.6988C126.575 55.0496 126.036 54.4815 125.497 54.3192C125.227 54.238 124.868 54.3192 124.598 54.4815C124.509 54.5626 124.239 54.7249 124.239 54.9684C124.239 55.293 123.88 55.5365 123.52 55.5365C123.161 55.5365 122.892 55.2119 122.892 54.8873C122.982 54.3192 123.251 53.9134 123.79 53.5076C124.419 53.183 125.137 53.0207 125.766 53.183C126.844 53.4265 127.742 54.3192 127.922 55.4553C128.281 57.3219 126.934 59.2696 124.868 59.8377C124.419 59.9188 123.97 60 123.52 60Z" fill="#2F2E2B"/>
<path d="M214.612 41C214.272 41 214.016 40.7443 214.016 40.4885C213.931 40.1476 214.187 39.8066 214.527 39.7214L224.218 38.0165C224.558 37.9313 224.899 38.187 224.984 38.528C225.069 38.8689 224.813 39.2099 224.473 39.2952L214.782 41C214.697 41 214.697 41 214.612 41Z" fill="#2F2E2B"/>
<path d="M212.594 26C212.425 26 212.172 25.9216 212.088 25.7649C211.919 25.5298 212.003 25.1379 212.257 24.9812L217.068 22.0815C217.321 21.9248 217.743 22.0032 217.912 22.2383C218.081 22.4734 217.997 22.8652 217.743 23.022L212.932 25.9216C212.763 26 212.679 26 212.594 26Z" fill="#2F2E2B"/>
<path d="M140.303 41H140.218L130.527 39.2952C130.187 39.2099 129.931 38.8689 130.016 38.528C130.101 38.187 130.442 37.9313 130.782 38.0165L140.473 39.7214C140.813 39.8066 141.069 40.1476 140.984 40.4885C140.899 40.8295 140.558 41 140.303 41Z" fill="#2F2E2B"/>
<path d="M162.311 44H162.226L149.521 42.0803C149.185 42.0092 148.932 41.7248 149.016 41.4404C149.1 41.156 149.437 40.9427 149.774 41.0138L162.479 42.9335C162.815 43.0046 163.068 43.289 162.984 43.5734C162.815 43.7867 162.563 44 162.311 44Z" fill="#2F2E2B"/>
<path d="M163.329 41C163.243 41 163.156 41 163.07 40.9209L133.412 30.1689C133.068 30.0107 132.895 29.6945 133.068 29.3783C133.24 29.062 133.585 28.9039 133.93 29.062L163.587 39.8141C163.932 39.9722 164.105 40.2885 163.932 40.6047C163.76 40.8419 163.587 41 163.329 41Z" fill="#2F2E2B"/>
<path d="M142.406 25C142.321 25 142.152 25 142.068 24.9216L137.257 22.022C137.003 21.8652 136.919 21.4734 137.088 21.2383C137.257 21.0032 137.679 20.9248 137.932 21.0815L142.743 23.9812C142.997 24.1379 143.081 24.5298 142.912 24.7649C142.828 24.9216 142.575 25 142.406 25Z" fill="#2F2E2B"/>
<path d="M164.393 39C164.306 39 164.134 39 164.048 38.9173L148.262 29.0782C148.003 28.9128 147.917 28.4994 148.09 28.2514C148.262 28.0034 148.694 27.9207 148.952 28.086L164.738 37.9251C164.997 38.0905 165.083 38.5039 164.91 38.752C164.824 38.9173 164.651 39 164.393 39Z" fill="#2F2E2B"/>
<path d="M191.593 38C191.424 38 191.172 37.9219 191.088 37.7657C190.919 37.5314 191.003 37.1409 191.256 36.9847L206.071 28.0813C206.323 27.9251 206.744 28.0032 206.912 28.2375C207.081 28.4718 206.997 28.8623 206.744 29.0185L191.929 37.9219C191.761 37.9219 191.677 38 191.593 38Z" fill="#2F2E2B"/>
<path d="M166.289 36C166.117 36 165.944 35.9195 165.858 35.839L143.194 15.0668C142.935 14.8253 142.935 14.4227 143.194 14.1812C143.452 13.9396 143.883 13.9396 144.142 14.1812L166.806 34.9533C167.065 35.1949 167.065 35.5974 166.806 35.839C166.634 35.9195 166.461 36 166.289 36Z" fill="#2F2E2B"/>
<path d="M158.42 20C158.255 20 158.008 19.9197 157.925 19.7592L151.086 9.8862C150.921 9.6454 151.003 9.24406 151.251 9.08352C151.498 8.92298 151.91 9.00325 152.075 9.24406L158.914 19.1171C159.079 19.3579 158.997 19.7592 158.749 19.9197C158.667 20 158.502 20 158.42 20Z" fill="#2F2E2B"/>
<path d="M168.408 35C168.239 35 167.987 34.9179 167.903 34.7538L161.088 24.906C160.919 24.6598 161.003 24.2495 161.256 24.0854C161.508 23.9213 161.929 24.0033 162.097 24.2495L168.912 34.0973C169.081 34.3435 168.997 34.7538 168.744 34.9179C168.66 35 168.576 35 168.408 35Z" fill="#2F2E2B"/>
<path d="M172.219 33C171.953 33 171.686 32.8365 171.598 32.5913L159.07 4.88153C158.892 4.55457 159.07 4.22761 159.425 4.06413C159.781 3.90065 160.136 4.06413 160.314 4.39109L172.93 32.1009C173.108 32.4278 172.93 32.7548 172.575 32.9183C172.397 32.9183 172.308 33 172.219 33Z" fill="#2F2E2B"/>
<path d="M169.402 8C169.11 8 168.89 7.83826 168.89 7.51478L168.014 2.7435C167.941 2.42002 168.16 2.09654 168.452 2.01567C168.744 1.9348 169.037 2.17741 169.11 2.50089L169.986 7.27218C170.059 7.59565 169.84 7.91913 169.548 8C169.475 8 169.402 8 169.402 8Z" fill="#2F2E2B"/>
<path d="M174.343 32C174.023 32 173.782 31.8348 173.782 31.5043L170.016 11.7595C169.935 11.4291 170.176 11.0986 170.496 11.016C170.817 10.9334 171.138 11.1812 171.218 11.5117L174.984 31.2565C175.065 31.5869 174.824 31.9174 174.504 32C174.423 32 174.423 32 174.343 32Z" fill="#2F2E2B"/>
<path d="M194.632 44C194.281 44 194.017 43.7761 194.017 43.5522C193.929 43.2536 194.193 42.9551 194.544 42.8804L207.192 41.0145C207.544 40.9398 207.895 41.1637 207.983 41.4623C208.071 41.7609 207.807 42.0594 207.456 42.134L194.808 44C194.72 44 194.72 44 194.632 44Z" fill="#2F2E2B"/>
<path d="M193.68 41C193.34 41 193 40.7564 193 40.4316C193 40.188 193.17 39.9444 193.425 39.8632L222.083 29.0637C222.423 28.9013 222.763 29.0637 222.933 29.3885C223.103 29.7133 222.933 30.0381 222.593 30.2005L193.935 40.9188C193.85 41 193.765 41 193.68 41Z" fill="#2F2E2B"/>
<path d="M189.634 36C189.459 36 189.284 35.9186 189.197 35.8372C188.934 35.593 188.934 35.1859 189.197 34.9417L211.842 14.1832C212.104 13.9389 212.541 13.9389 212.803 14.1832C213.066 14.4274 213.066 14.8344 212.803 15.0786L190.158 35.8372C189.984 35.9186 189.809 36 189.634 36Z" fill="#2F2E2B"/>
<path d="M197.58 20C197.498 20 197.333 20 197.251 19.9197C197.003 19.7592 196.921 19.3579 197.086 19.1171L203.925 9.24406C204.09 9.00325 204.502 8.92298 204.749 9.08352C204.997 9.24406 205.079 9.6454 204.914 9.8862L198.075 19.7592C197.91 19.9197 197.745 20 197.58 20Z" fill="#2F2E2B"/>
<path d="M187.605 35C187.519 35 187.347 35 187.261 34.9161C187.003 34.7482 186.918 34.3285 187.089 34.0766L193.879 24.2552C194.051 24.0034 194.481 23.9195 194.739 24.0873C194.997 24.2552 195.082 24.6749 194.911 24.9268L188.121 34.6642C187.949 34.8321 187.777 35 187.605 35Z" fill="#2F2E2B"/>
<path d="M184.646 33C184.563 33 184.48 33 184.397 32.9178C184.065 32.7534 183.899 32.4246 184.065 32.0958L195.772 4.39331C195.938 4.0645 196.271 3.90009 196.603 4.0645C196.935 4.2289 197.101 4.55772 196.935 4.88653L185.228 32.589C185.145 32.8356 184.895 33 184.646 33Z" fill="#2F2E2B"/>
<path d="M186.525 8H186.452C186.16 7.91913 185.941 7.59565 186.014 7.27218L186.89 2.50089C186.963 2.17741 187.256 1.9348 187.548 2.01567C187.84 2.09654 188.059 2.42002 187.986 2.7435L187.11 7.51478C186.963 7.83826 186.744 8 186.525 8Z" fill="#2F2E2B"/>
<path d="M181.577 31H181.496C181.176 30.9207 180.935 30.6035 181.016 30.2863L184.782 11.4912C184.862 11.174 185.183 10.9361 185.504 11.0154C185.824 11.0947 186.065 11.4119 185.984 11.7291L182.138 30.5242C182.057 30.8414 181.817 31 181.577 31Z" fill="#2F2E2B"/>
<path d="M177.528 32C177.264 32 177 31.7551 177 31.3469V0.653061C177 0.326531 177.198 0 177.462 0C177.726 0 177.99 0.244898 177.99 0.653061V31.3469C178.056 31.6735 177.792 32 177.528 32Z" fill="#2F2E2B"/>
<path d="M194.483 47C194.142 47 193.8 46.756 193.8 46.3493C193.8 45.4545 193.715 44.5598 193.544 43.6651C193.373 42.689 193.117 41.7129 192.69 40.7368C192.263 39.7608 191.75 38.866 191.238 38.0526C190.64 37.1579 189.956 36.4258 189.188 35.6938C188.419 34.9617 187.565 34.311 186.71 33.823C185.856 33.2536 184.917 32.7655 183.892 32.4402C182.867 32.0335 181.842 31.7895 180.817 31.6268C179.963 31.4641 179.023 31.3828 178.083 31.3828H177.742C176.717 31.3828 175.692 31.5455 174.752 31.7081C173.727 31.8708 172.788 32.1962 171.763 32.6029C170.823 33.0096 169.969 33.4976 169.029 34.067C168.175 34.6364 167.406 35.2871 166.723 36.0191C166.04 36.6699 165.356 37.4833 164.844 38.2967C164.331 39.11 163.819 40.0048 163.477 40.8995C163.135 41.7943 162.794 42.689 162.623 43.7464C162.452 44.5598 162.367 45.4545 162.367 46.2679C162.367 46.5933 162.11 46.9187 161.683 46.9187C161.342 46.9187 161 46.6746 161 46.2679C161 45.2919 161.085 44.3971 161.256 43.5024C161.427 42.445 161.769 41.3876 162.11 40.4115C162.538 39.4354 163.05 38.4593 163.563 37.5646C164.16 36.6699 164.844 35.7751 165.613 35.0431C166.381 34.311 167.235 33.5789 168.175 32.9282C169.115 32.2775 170.14 31.7895 171.079 31.3828C172.104 30.9761 173.215 30.5694 174.325 30.4067C175.35 30.1627 176.46 30.0813 177.571 30H177.913C178.938 30 179.963 30.0813 180.902 30.244C182.013 30.4067 183.038 30.7321 184.148 31.1388C185.173 31.5455 186.198 32.0335 187.223 32.6029C188.163 33.1722 189.017 33.9043 189.871 34.6364C190.64 35.3684 191.408 36.1818 192.092 37.1579C192.69 38.0526 193.288 39.0287 193.715 40.0861C194.142 41.1435 194.483 42.201 194.654 43.2584C194.825 44.2344 194.911 45.2105 194.911 46.1053C195.167 46.6746 194.825 47 194.483 47Z" fill="#2F2E2B"/>
<path d="M308.527 72L306.857 73.9018L309.49 80.9289L310.132 80.5744L307.756 74.2242L309.458 72.2579L309.875 72.4352L308.254 74.3209L310.502 80.3326C310.63 80.2359 310.705 80.1768 310.726 80.1553L311.256 79.704C311.577 79.4462 311.781 79.2635 311.866 79.156C312.145 80.381 312.573 81.4769 313.151 82.444C312.841 82.4225 312.616 82.4117 312.477 82.4117C311.46 82.4117 310.716 82.5729 310.245 82.8952L313.151 90.8088L315.559 92.6784H307.451L309.667 90.8088L307.884 86.1026C306.707 87.2952 305.802 88.4288 305.171 89.5033L304.802 89.4066C305.433 88.3536 306.375 87.177 307.627 85.8769L307.756 85.7158L307.451 85.0066C306.177 86.0703 305.123 87.306 304.288 88.7136L303.999 88.2462C303.442 87.3543 302.73 86.339 301.863 85.2L301.703 85.0066C300.878 86.844 300.466 88.3375 300.466 89.4872C300.466 90.1641 300.579 90.739 300.803 91.2117C301.039 91.6737 301.596 92.4527 302.473 93.5487C302.548 93.6454 302.666 93.7958 302.827 94H294.156L293.835 93.5648H302.008L301.735 93.2264C301.028 92.3668 300.563 91.7006 300.338 91.2278C300.124 90.7443 300.017 90.1802 300.017 89.5355C300.017 88.4396 300.461 86.8063 301.349 84.6359L300.643 83.8945C300.504 84.2383 300.327 84.7433 300.113 85.4095L299.583 87.0535C299.294 87.9346 299.15 88.6652 299.15 89.2454C299.15 89.8471 299.251 90.3468 299.455 90.7443C299.658 91.1419 300.086 91.6845 300.739 92.3722C300.803 92.4366 300.9 92.5387 301.028 92.6784H293C294.531 91.8833 295.74 90.8142 296.629 89.4711C297.528 88.128 298.416 86.0542 299.294 83.2498L299.358 83.0242C298.791 82.5407 297.972 82.2452 296.902 82.1377C297.49 81.2567 297.945 80.338 298.267 79.3817C298.416 79.5214 298.507 79.6073 298.54 79.6396L299.262 80.3165C299.508 80.5529 299.803 80.7946 300.145 81.0418L300.434 80.3326L300.241 80.1714C299.706 79.6987 299.257 79.3172 298.893 79.0271L298.748 78.9143L299.005 78.5597C299.572 78.9358 300.118 79.3709 300.643 79.8652L302.827 73.8374L301.125 72H308.527ZM304.561 77.1736L302.794 81.8476C302.891 81.9551 302.944 82.0195 302.955 82.041L303.613 82.7824C303.967 83.1692 304.416 83.7709 304.962 84.5875L305.123 84.8293C305.583 84.2491 306.129 83.6742 306.76 83.1048L304.561 77.1736ZM303.838 75.304L301.285 82.0733C302.099 82.9114 302.8 83.7387 303.389 84.5553L304.127 85.5868C304.138 85.5976 304.191 85.6674 304.288 85.7963C304.384 85.6996 304.438 85.6405 304.448 85.619L304.673 85.3451C304.705 85.3021 304.764 85.2322 304.85 85.1355C304.1 83.9751 303.228 82.9275 302.233 81.9927L304.288 76.5451L303.838 75.304ZM313.279 79.9297C313.515 80.8967 314.104 82.2237 315.046 83.9106C314.81 83.8784 314.676 83.8623 314.644 83.8623L313.344 83.7495C312.755 83.6957 312.327 83.6689 312.059 83.6689C312.016 83.6689 311.909 83.6742 311.738 83.685L314.419 90.8249L318 94H308.703L308.398 93.5648H316.924L314.034 91.0022L311.176 83.411C311.54 83.3143 311.957 83.2659 312.428 83.2659C313.006 83.2659 313.649 83.3143 314.355 83.411L314.162 83.0564C313.477 81.7885 313.017 80.6442 312.782 79.6234L313.279 79.9297Z" fill="#2F2E2B"/>
<path d="M270.47 72H276.642C279.661 72 281.896 72.5963 283.347 73.789C285.509 75.5512 286.59 78.3126 286.59 82.0733C286.59 85.9736 285.645 88.7941 283.755 90.5348C282.898 91.3192 281.937 91.8725 280.872 92.1949C279.817 92.5172 278.413 92.6784 276.658 92.6784H270L272.146 90.9861V73.8535L270.47 72ZM275.217 73.3538V91.4374H276.078V74.4176C276.621 74.3316 277.117 74.2886 277.567 74.2886C278.423 74.2886 279.097 74.38 279.587 74.5626C280.089 74.7346 280.59 75.0569 281.091 75.5297C279.984 74.9924 278.799 74.7238 277.535 74.7238C277.264 74.7238 276.909 74.7453 276.47 74.7883V91.4374C277.64 91.4374 278.527 91.3407 279.133 91.1473C279.739 90.9431 280.313 90.5563 280.856 89.9868C282.371 88.4073 283.128 85.7534 283.128 82.0249C283.128 78.3824 282.308 75.895 280.668 74.5626C279.676 73.7568 278.104 73.3538 275.953 73.3538H275.217ZM270.971 94L270.736 93.5648H276.47C279.29 93.5648 281.431 93.1619 282.893 92.356C286.037 90.6369 287.608 87.3114 287.608 82.3795C287.608 79.0808 286.903 76.631 285.493 75.03L284.867 74.3209C284.846 74.2994 284.783 74.2242 284.679 74.0952C286.893 75.5243 288 78.2589 288 82.2989C288 86.5431 286.903 89.6698 284.71 91.6791C283.029 93.2264 280.282 94 276.47 94H270.971Z" fill="#2F2E2B"/>
<path d="M256.527 72L254.857 73.9018L257.49 80.9289L258.132 80.5744L255.756 74.2242L257.458 72.2579L257.875 72.4352L256.254 74.3209L258.502 80.3326C258.63 80.2359 258.705 80.1768 258.726 80.1553L259.256 79.704C259.577 79.4462 259.781 79.2635 259.866 79.156C260.145 80.381 260.573 81.4769 261.151 82.444C260.841 82.4225 260.616 82.4117 260.477 82.4117C259.46 82.4117 258.716 82.5729 258.245 82.8952L261.151 90.8088L263.559 92.6784H255.451L257.667 90.8088L255.884 86.1026C254.707 87.2952 253.802 88.4288 253.171 89.5033L252.802 89.4066C253.433 88.3536 254.375 87.177 255.627 85.8769L255.756 85.7158L255.451 85.0066C254.177 86.0703 253.123 87.306 252.288 88.7136L251.999 88.2462C251.442 87.3543 250.73 86.339 249.863 85.2L249.703 85.0066C248.878 86.844 248.466 88.3375 248.466 89.4872C248.466 90.1641 248.579 90.739 248.803 91.2117C249.039 91.6737 249.596 92.4527 250.473 93.5487C250.548 93.6454 250.666 93.7958 250.827 94H242.156L241.835 93.5648H250.008L249.735 93.2264C249.028 92.3668 248.563 91.7006 248.338 91.2278C248.124 90.7443 248.017 90.1802 248.017 89.5355C248.017 88.4396 248.461 86.8063 249.349 84.6359L248.643 83.8945C248.504 84.2383 248.327 84.7433 248.113 85.4095L247.583 87.0535C247.294 87.9346 247.15 88.6652 247.15 89.2454C247.15 89.8471 247.251 90.3468 247.455 90.7443C247.658 91.1419 248.086 91.6845 248.739 92.3722C248.803 92.4366 248.9 92.5387 249.028 92.6784H241C242.531 91.8833 243.74 90.8142 244.629 89.4711C245.528 88.128 246.416 86.0542 247.294 83.2498L247.358 83.0242C246.791 82.5407 245.972 82.2452 244.902 82.1377C245.49 81.2567 245.945 80.338 246.267 79.3817C246.416 79.5214 246.507 79.6073 246.54 79.6396L247.262 80.3165C247.508 80.5529 247.803 80.7946 248.145 81.0418L248.434 80.3326L248.241 80.1714C247.706 79.6987 247.257 79.3172 246.893 79.0271L246.748 78.9143L247.005 78.5597C247.572 78.9358 248.118 79.3709 248.643 79.8652L250.827 73.8374L249.125 72H256.527ZM252.561 77.1736L250.794 81.8476C250.891 81.9551 250.944 82.0195 250.955 82.041L251.613 82.7824C251.967 83.1692 252.416 83.7709 252.962 84.5875L253.123 84.8293C253.583 84.2491 254.129 83.6742 254.76 83.1048L252.561 77.1736ZM251.838 75.304L249.285 82.0733C250.099 82.9114 250.8 83.7387 251.389 84.5553L252.127 85.5868C252.138 85.5976 252.191 85.6674 252.288 85.7963C252.384 85.6996 252.438 85.6405 252.448 85.619L252.673 85.3451C252.705 85.3021 252.764 85.2322 252.85 85.1355C252.1 83.9751 251.228 82.9275 250.233 81.9927L252.288 76.5451L251.838 75.304ZM261.279 79.9297C261.515 80.8967 262.104 82.2237 263.046 83.9106C262.81 83.8784 262.676 83.8623 262.644 83.8623L261.344 83.7495C260.755 83.6957 260.327 83.6689 260.059 83.6689C260.016 83.6689 259.909 83.6742 259.738 83.685L262.419 90.8249L266 94H256.703L256.398 93.5648H264.924L262.034 91.0022L259.176 83.411C259.54 83.3143 259.957 83.2659 260.428 83.2659C261.006 83.2659 261.649 83.3143 262.355 83.411L262.162 83.0564C261.477 81.7885 261.017 80.6442 260.782 79.6234L261.279 79.9297Z" fill="#2F2E2B"/>
<path d="M234.653 72L221.759 91.3084H222.772L235.408 72.3546L235.698 72.7414L223.318 91.3084H224.926L226.196 91.2762H226.855C227.734 91.2762 228.565 91.1096 229.347 90.7766C230.14 90.4435 230.741 90.0083 231.148 89.4711C231.652 88.8049 232.08 88.0689 232.434 87.263C233.334 89.6269 234.288 91.432 235.296 92.6784H217L228.913 74.7399L228.592 74.7238L226.534 74.6916C224.583 74.6916 223.238 74.9065 222.498 75.3363C221.759 75.7553 221.223 76.6256 220.891 77.9473L220.553 77.5766C220.757 76.6632 221.196 75.9057 221.871 75.304C222.322 74.8957 222.852 74.6271 223.463 74.4982C224.074 74.3585 225.081 74.2886 226.486 74.2886C227.375 74.2886 228.195 74.3048 228.945 74.337L229.186 74.3531L229.813 73.4344C229.063 73.3807 228.324 73.3538 227.595 73.3538C225.376 73.3538 223.849 73.4505 223.013 73.644C222.188 73.8374 221.469 74.2564 220.859 74.9011C220.387 75.4061 220.001 76.0884 219.701 76.948L219.572 76.674C219.036 75.4383 218.275 73.9394 217.289 72.1773L217.193 72H234.653ZM237 92.5495L236.18 94H217.82L217.482 93.5648H235.923L236.502 92.5495C235.269 91.0452 234.299 89.3368 233.592 87.4242L234.138 87.6337C234.685 89.2562 235.596 90.8464 236.871 92.4044L237 92.5495Z" fill="#2F2E2B"/>
<path d="M203 72H210.292L208.231 74.1919V90.97L210.169 92.6784H203L205.138 90.8249V74.0147L203 72ZM210.985 72.9187L209.415 74.5465V90.97L212 94H204L203.615 93.5648H211.092L208.985 91.1311V74.4015L210.723 72.5963L210.985 72.9187Z" fill="#2F2E2B"/>
<path d="M178.862 74.1532C181.386 72.7177 184.1 72 187.007 72C189.264 72 191.122 72.482 192.58 73.446C194.049 74.41 194.784 75.6359 194.784 77.1238C194.784 78.3392 194.305 79.4185 193.347 80.3615C192.389 81.294 191.079 81.9699 189.418 82.389C190.153 84.3798 191.148 86.3183 192.405 88.2043C193.671 90.0904 194.938 91.5363 196.205 92.5422L195.966 92.6208C194.379 93.1552 192.825 93.9096 191.303 94.8841L191.063 95.0413L190.983 94.5383C190.302 90.4833 189.349 87.0465 188.125 84.2279L188.061 84.0707C187.326 84.406 186.341 84.6732 185.106 84.8723L184.979 84.888V90.7662L187.789 93.721H179.533L179.278 93.2967H186.879L184.563 90.8762V84.5422L184.899 84.4951C186.113 84.3694 187.129 84.1336 187.949 83.7878C187.885 83.6621 187.848 83.5835 187.837 83.5521L187.678 83.0963C187.667 83.0648 187.64 83.002 187.598 82.9077C186.938 83.0963 185.692 83.3006 183.861 83.5206L183.685 83.5521V90.5619L185.506 92.4322H178.447L180.523 90.5619V85.2809L180.395 85.2967C179.778 85.4329 179.219 85.5848 178.719 85.7525L178.591 85.7996L178.447 85.4853C178.916 85.3071 179.283 85.1866 179.549 85.1238L180.395 84.9195L180.523 84.888V84.0707C179.895 84.0707 179.113 84.2069 178.176 84.4794L178 84.5422C178.021 84.3955 178.128 84.055 178.319 83.5206C178.341 83.4787 178.415 83.243 178.543 82.8134C178.554 82.7819 178.57 82.7348 178.591 82.6719C179.07 82.7033 179.443 82.7191 179.709 82.7191C179.996 82.7191 180.262 82.7033 180.507 82.6719V74.9391C180.017 74.6457 179.512 74.3995 178.99 74.2004L178.862 74.1532ZM183.685 73.7446V82.2161C183.994 82.2161 184.287 82.1899 184.563 82.1375V74.4047C185.149 74.2475 185.852 74.169 186.671 74.169C188.748 74.169 190.158 74.8396 190.903 76.1807C190.116 75.5521 189.424 75.1225 188.827 74.8919C188.231 74.6509 187.518 74.5305 186.687 74.5305C186.038 74.5305 185.468 74.5933 184.979 74.7191V82.1375L185.154 82.1061C187.252 81.7289 188.806 81.1369 189.817 80.3301C190.84 79.5128 191.351 78.4545 191.351 77.1552C191.351 75.9921 190.893 75.0334 189.977 74.279C189.062 73.5141 187.906 73.1316 186.512 73.1316C185.394 73.1316 184.452 73.336 183.685 73.7446ZM191.398 83.1749C192.069 85.3333 193.256 87.4447 194.96 89.5088C196.024 90.7976 197.371 91.9555 199 92.9823C196.562 93.6215 194.273 94.5959 192.133 95.9057L191.989 96L191.67 95.7485C193.703 94.4388 195.87 93.4748 198.17 92.8566C195.103 90.8448 192.692 87.628 190.935 83.2063L190.84 82.9391C194.097 81.7236 195.726 79.869 195.726 77.3752C195.726 76.3484 195.306 75.2272 194.465 74.0118C195.54 74.9758 196.078 76.2017 196.078 77.6896C196.078 80.0995 194.518 81.928 191.398 83.1749Z" fill="#2F2E2B"/>
<path d="M171.401 72L171.154 72.3062C170.102 73.6493 169.267 75.1912 168.648 76.9319C168.545 76.6847 168.468 76.5021 168.416 76.3839C167.849 75.0945 167.241 74.2618 166.591 73.8857C165.941 73.5096 164.776 73.3216 163.095 73.3216C162.322 73.3216 161.394 73.3485 160.311 73.4022V80.8161H161.301V74.2564C162.085 74.1812 162.832 74.1436 163.544 74.1436C164.853 74.1436 165.817 74.2886 166.436 74.5788C167.055 74.8689 167.607 75.433 168.091 76.2711C167.947 76.1636 167.844 76.083 167.782 76.0293C166.947 75.3416 166.343 74.9333 165.972 74.8044C165.601 74.6755 164.869 74.611 163.776 74.611C163.446 74.611 162.858 74.6325 162.012 74.6755L161.688 74.6916V80.8161H164.534L166.529 77.9634V84.9099L164.534 82.2183H160.311V91.2601H161.301V82.9758H164.657L165.06 83.3949H161.688V91.2601C163.791 91.2601 165.286 91.1043 166.173 90.7927C167.06 90.4811 167.756 89.8686 168.261 88.9553L169.081 87.4886C169.112 87.4242 169.174 87.306 169.267 87.1341C169.535 88.316 169.865 89.2615 170.257 89.9707C170.659 90.6799 171.319 91.5072 172.237 92.4527H154.897L157.248 90.5832V83.3949C156.382 83.5023 155.598 83.7817 154.897 84.233L154.681 83.8945C155.31 83.4217 156.166 83.1155 157.248 82.9758V82.2183C157.073 82.1968 156.949 82.1861 156.877 82.1861C155.825 82.1861 154.866 82.589 154 83.3949C154.474 81.6757 155.557 80.8161 157.248 80.8161V73.9341L154.897 72H171.401ZM172.144 73.1282L172.036 73.2733C170.778 75.0354 169.937 76.5128 169.514 77.7055L169.251 77.367C169.942 75.7016 170.834 74.1758 171.927 72.7897L172.144 73.1282ZM167.596 78.4952V85.619L167.21 85.4095V78.2857L167.596 78.4952ZM174 92.5495L173.196 94H156.305L156.057 93.5648H172.995L173.521 92.5495C172.036 91.1204 170.989 89.5946 170.381 87.9722L170.875 88.1656C171.443 89.5409 172.402 90.9162 173.753 92.2916L174 92.5495Z" fill="#2F2E2B"/>
<path d="M130.907 72H138.256L136.13 74.1436V81.1062C136.37 81.1492 136.651 81.1814 136.974 81.2029V74.3048L138.679 72.5641L138.991 72.8542L137.381 74.4982V81.219L137.897 81.2674C138.7 81.3426 139.476 81.3802 140.227 81.3802C141.311 81.3802 142.244 81.3265 143.026 81.219V73.8051L141.118 72H148.342L146.185 74.1436V90.9377L148.077 92.6784H140.884L143.026 90.7927V83.959C142.15 84.1739 141.248 84.2813 140.321 84.2813C139.445 84.2813 138.538 84.233 137.6 84.1363L137.381 84.1201V90.9377L139.961 94H131.876L131.47 93.5648H139.101L136.974 91.1634V83.7495L137.428 83.7817C138.804 83.8891 139.799 83.9429 140.414 83.9429C141.415 83.9429 142.286 83.8032 143.026 83.5238V82.9436C142.046 83.094 140.904 83.1692 139.601 83.1692C138.903 83.1692 138.392 83.1531 138.069 83.1209L136.489 82.9758C136.427 82.9651 136.307 82.9543 136.13 82.9436V90.9377L138.131 92.6784H130.907L133.002 90.7927V83.7495C132.127 83.7495 131.428 84.104 130.907 84.8132L130.579 84.652C131.183 83.8676 131.991 83.4325 133.002 83.3465V82.7502C131.835 82.7502 130.912 83.2068 130.235 84.1201L130 83.959C130.615 82.4117 131.616 81.4984 133.002 81.219V73.9663L130.907 72ZM148.999 72.9026L147.404 74.4982V90.9377L150 94H141.884L141.493 93.5648H149.109L147.013 91.1311V74.337L148.749 72.5641L148.999 72.9026Z" fill="#2F2E2B"/>
<path d="M123.401 72L123.154 72.3062C122.102 73.6493 121.267 75.1912 120.648 76.9319C120.545 76.6847 120.468 76.5021 120.416 76.3839C119.849 75.0945 119.241 74.2618 118.591 73.8857C117.941 73.5096 116.776 73.3216 115.095 73.3216C114.322 73.3216 113.394 73.3485 112.311 73.4022V80.8161H113.301V74.2564C114.085 74.1812 114.832 74.1436 115.544 74.1436C116.853 74.1436 117.817 74.2886 118.436 74.5788C119.055 74.8689 119.607 75.433 120.091 76.2711C119.947 76.1636 119.844 76.083 119.782 76.0293C118.947 75.3416 118.343 74.9333 117.972 74.8044C117.601 74.6755 116.869 74.611 115.776 74.611C115.446 74.611 114.858 74.6325 114.012 74.6755L113.688 74.6916V80.8161H116.534L118.529 77.9634V84.9099L116.534 82.2183H112.311V91.2601H113.301V82.9758H116.657L117.06 83.3949H113.688V91.2601C115.791 91.2601 117.286 91.1043 118.173 90.7927C119.06 90.4811 119.756 89.8686 120.261 88.9553L121.081 87.4886C121.112 87.4242 121.174 87.306 121.267 87.1341C121.535 88.316 121.865 89.2615 122.257 89.9707C122.659 90.6799 123.319 91.5072 124.237 92.4527H106.897L109.248 90.5832V83.3949C108.382 83.5023 107.598 83.7817 106.897 84.233L106.681 83.8945C107.31 83.4217 108.166 83.1155 109.248 82.9758V82.2183C109.073 82.1968 108.949 82.1861 108.877 82.1861C107.825 82.1861 106.866 82.589 106 83.3949C106.474 81.6757 107.557 80.8161 109.248 80.8161V73.9341L106.897 72H123.401ZM124.144 73.1282L124.036 73.2733C122.778 75.0354 121.937 76.5128 121.514 77.7055L121.251 77.367C121.942 75.7016 122.834 74.1758 123.927 72.7897L124.144 73.1282ZM119.596 78.4952V85.619L119.21 85.4095V78.2857L119.596 78.4952ZM126 92.5495L125.196 94H108.305L108.057 93.5648H124.995L125.52 92.5495C124.036 91.1204 122.989 89.5946 122.381 87.9722L122.875 88.1656C123.443 89.5409 124.402 90.9162 125.753 92.2916L126 92.5495Z" fill="#2F2E2B"/>
<path d="M82.907 72H90.2565L88.1298 74.1436V81.1062C88.3696 81.1492 88.651 81.1814 88.9742 81.2029V74.3048L90.6787 72.5641L90.9914 72.8542L89.3808 74.4982V81.219L89.8968 81.2674C90.6995 81.3426 91.4762 81.3802 92.2267 81.3802C93.3109 81.3802 94.2439 81.3265 95.0258 81.219V73.8051L93.1181 72H100.342L98.1845 74.1436V90.9377L100.077 92.6784H92.8835L95.0258 90.7927V83.959C94.1501 84.1739 93.2484 84.2813 92.3206 84.2813C91.4449 84.2813 90.5379 84.233 89.5997 84.1363L89.3808 84.1201V90.9377L91.9609 94H83.8765L83.4699 93.5648H91.1009L88.9742 91.1634V83.7495L89.4277 83.7817C90.8038 83.8891 91.7993 83.9429 92.4144 83.9429C93.4152 83.9429 94.2856 83.8032 95.0258 83.5238V82.9436C94.0459 83.094 92.9044 83.1692 91.6013 83.1692C90.9028 83.1692 90.392 83.1531 90.0688 83.1209L88.4894 82.9758C88.4269 82.9651 88.307 82.9543 88.1298 82.9436V90.9377L90.1314 92.6784H82.907L85.0023 90.7927V83.7495C84.1267 83.7495 83.4282 84.104 82.907 84.8132L82.5786 84.652C83.1832 83.8676 83.9911 83.4325 85.0023 83.3465V82.7502C83.8348 82.7502 82.9122 83.2068 82.2346 84.1201L82 83.959C82.6151 82.4117 83.6158 81.4984 85.0023 81.219V73.9663L82.907 72ZM100.999 72.9026L99.4042 74.4982V90.9377L102 94H93.8843L93.4934 93.5648H101.109L99.0133 91.1311V74.337L100.749 72.5641L100.999 72.9026Z" fill="#2F2E2B"/>
<path d="M76.8236 73.0287L76.6464 73.334C75.6795 75.0163 74.8415 76.6986 74.1325 78.3809L73.9875 78.7505L73.778 78.638C73.5309 77.0093 72.9561 75.7181 72.0537 74.7645C71.1513 73.8109 70.0609 73.334 68.7825 73.334C67.4181 73.334 66.2793 73.9287 65.3662 75.1181C64.2167 76.5968 63.6419 79.1041 63.6419 82.6401C63.6419 85.6832 64.1683 88.0673 65.2211 89.7924C66.2847 91.5176 67.7565 92.3801 69.6365 92.3801C71.1406 92.3801 72.3384 91.8819 73.2301 90.8854C74.1325 89.8782 74.6697 88.4423 74.8415 86.5779C74.8845 86.1279 75.0671 85.9029 75.3894 85.9029C75.8084 85.9029 76.0179 86.2511 76.0179 86.9476C76.0179 87.987 75.7816 89.0638 75.3089 90.1782C74.3098 92.5355 72.2471 93.7142 69.1209 93.7142C66.3277 93.7142 64.1092 92.7391 62.4655 90.789C60.8218 88.8281 60 86.1815 60 82.8491C60 79.7738 60.8541 77.1968 62.5622 75.1181C64.2704 73.0394 66.3921 72 68.9275 72C70.1307 72 71.5004 72.2947 73.0367 72.884C73.8424 73.1947 74.5085 73.3501 75.0349 73.3501C75.6043 73.3501 76.1146 73.1947 76.5658 72.884L76.8236 73.0287ZM72.1504 75.8092C71.1728 75.027 70.2489 74.6359 69.3787 74.6359C66.5962 74.6359 65.205 77.2826 65.205 82.5758C65.205 84.9867 65.5273 86.9958 66.1719 88.6031C66.8165 90.1996 67.7243 91.2336 68.8953 91.7051V91.8658C67.6276 91.6087 66.6124 90.6389 65.8496 88.9567C65.0976 87.2637 64.7216 85.126 64.7216 82.5437C64.7216 77.004 66.2471 74.2341 69.2981 74.2341C70.3295 74.2341 71.2802 74.6895 72.1504 75.6003V75.8092ZM77.4038 86.8512C77.2319 89.5085 76.4852 91.5337 75.1638 92.9266C73.8532 94.3089 72.0161 95 69.6526 95C67.8585 95 66.188 94.4482 64.641 93.3445V93.2159C66.0161 94.116 67.6759 94.566 69.6204 94.566C71.7475 94.566 73.4825 93.8856 74.8254 92.5248C75.4808 91.8605 75.9642 91.1158 76.2757 90.2907C76.5873 89.4656 76.7968 88.3727 76.9042 87.0119L76.9364 86.6422L77.4038 86.8512ZM78 73.8001L77.8227 74.1055C76.6517 76.0985 75.7171 77.9147 75.0188 79.5542L74.5837 79.3452L74.761 78.9434C75.2981 77.8183 75.7708 76.8861 76.1791 76.1467L77.4682 73.8644L77.6294 73.5751L78 73.8001Z" fill="#2F2E2B"/>
<path d="M52.8451 72.5153C52.2958 73.2439 51.8574 74.0038 51.5299 74.7949C50.8856 76.3563 50.4577 77.3139 50.2465 77.6678L50.1673 77.7615C50.125 77.647 50.0933 77.5586 50.0722 77.4961C49.7764 76.5593 49.5335 75.9087 49.3433 75.5444C49.1532 75.18 48.868 74.8313 48.4877 74.4982C47.5264 73.6551 46.4331 73.2335 45.2077 73.2335C44.0775 73.2335 43.1373 73.5458 42.3873 74.1703C41.6373 74.7845 41.2623 75.56 41.2623 76.4968C41.2623 78.2456 42.5986 79.4374 45.2711 80.0724L47.9489 80.7126C51.7623 81.6182 53.669 83.6011 53.669 86.6615C53.669 88.3686 53.0141 89.8051 51.7042 90.9709C50.4049 92.1263 48.794 92.704 46.8715 92.704C45.6673 92.704 44.3204 92.5219 42.831 92.1576L40.9771 91.7048C40.2271 91.5278 39.6092 91.4393 39.1232 91.4393C38.4789 91.4393 37.8134 91.6423 37.1268 92.0483L37 91.8297C38.3099 89.8831 39.2289 88.0303 39.757 86.2711L40.0423 86.3492C40.2641 87.9834 40.9296 89.2534 42.0387 90.159C43.1479 91.0646 44.6004 91.5174 46.3961 91.5174C47.8116 91.5174 48.9366 91.1947 49.7711 90.5493C50.6056 89.904 51.0229 89.0348 51.0229 87.9418C51.0229 86.6823 50.4419 85.6414 49.2799 84.819C48.4454 84.2361 46.7342 83.6948 44.1461 83.1952C42.1496 82.81 40.7025 82.1699 39.8046 81.2747C38.9067 80.3795 38.4577 79.1356 38.4577 77.5429C38.4577 75.8983 39.0546 74.5659 40.2482 73.5458C41.4525 72.5153 43.0158 72 44.9384 72C46.1743 72 47.6162 72.2186 49.2641 72.6558C50.0352 72.864 50.6056 72.9681 50.9754 72.9681C51.493 72.9681 52.0581 72.7911 52.6708 72.4372L52.8451 72.5153ZM53.8275 73.171L53.6849 73.4053C53.2518 74.1235 52.882 74.8105 52.5757 75.4663C51.8363 76.9965 51.419 77.85 51.3239 78.027L51.2447 78.1363L50.8644 77.9801L50.9278 77.8396C51.2342 77.1526 51.6778 76.2574 52.2588 75.154L53.3363 73.093L53.4155 72.9681L53.8275 73.171ZM49.2007 76.2782C48.0387 75.0603 46.7923 74.4514 45.4613 74.4514C44.6585 74.4514 43.993 74.6804 43.4648 75.1384C42.9366 75.5964 42.6725 76.1793 42.6725 76.8872C42.6725 77.6574 43.206 78.4485 44.2729 79.2605L44.3996 79.3385L44.3204 79.4634C42.9261 78.8493 42.2289 77.9593 42.2289 76.7935C42.2289 75.9815 42.5246 75.3206 43.1162 74.8105C43.7077 74.3004 44.4789 74.0454 45.4296 74.0454C46.338 74.0454 47.1303 74.238 47.8063 74.6231C48.493 74.9979 48.9947 75.5287 49.3116 76.2158L49.2007 76.2782ZM52.8451 82.4769C54.2817 83.5491 55 85.0168 55 86.8801C55 88.8682 54.2183 90.5545 52.6549 91.939C51.0915 93.313 49.1901 94 46.9507 94C45.8099 94 44.7799 93.8855 43.8609 93.6565L41.3257 93.0476C40.7342 92.9018 40.1004 92.829 39.4243 92.829C38.8222 92.829 38.2676 92.9487 37.7606 93.1881L37.5704 92.7353C38.1197 92.4854 38.6796 92.3605 39.25 92.3605C39.8838 92.3605 40.6074 92.4542 41.4208 92.6416L43.8609 93.2193C44.8327 93.4483 45.8574 93.5628 46.9349 93.5628C49.0475 93.5628 50.8433 92.9018 52.3222 91.5798C53.8116 90.2475 54.5563 88.6392 54.5563 86.7551C54.5563 85.1625 53.9859 83.7677 52.8451 82.5706V82.4769ZM41.5634 86.9737C41.9542 88.8474 43 90.1746 44.7007 90.9553V91.0802C42.7359 90.5181 41.5475 89.1753 41.1356 87.0518L41.5634 86.9737ZM39.5827 81.9148L40.1215 82.2115C40.4701 82.8256 41.4894 83.3357 43.1796 83.7417L45.7306 84.3662C47.463 84.793 48.6144 85.1625 49.1849 85.4748C49.7658 85.7767 50.1778 86.2399 50.4208 86.8644L50.3099 86.9269C49.8345 86.3856 49.3169 85.9901 48.757 85.7402C48.2077 85.4904 47.1461 85.1833 45.5722 84.819C43.2905 84.2986 41.7588 83.851 40.9771 83.4762C40.1954 83.0911 39.7306 82.5706 39.5827 81.9148Z" fill="#2F2E2B"/>
</g>
<defs>
<clipPath id="clip0_2016_6088">
<rect width="355" height="120" fill="white"/>
</clipPath>
</defs>
</svg>
